<svg xmlns="http://www.w3.org/2000/svg" version="1.1" xmlns:xlink="http://www.w3.org/1999/xlink" xmlns:svgjs="http://svgjs.dev/svgjs" width="1000" height="750" viewBox="0 0 1000 750"><rect width="1000" height="750" fill="#ffffff"></rect><g transform="matrix(0.834,0,0,0.834,82.49463447358266,123.90619088306087)"><svg viewBox="0 0 396 238" data-background-color="#ffffff" preserveAspectRatio="xMidYMid meet" height="601" width="1000" xmlns="http://www.w3.org/2000/svg" xmlns:xlink="http://www.w3.org/1999/xlink"><g id="tight-bounds" transform="matrix(1,0,0,1,0.2399577319679338,0.22640237859268098)"><svg viewBox="0 0 395.52 237.54719524281464" height="237.54719524281464" width="395.52"><g><svg viewBox="0 0 395.52 237.54719524281464" height="237.54719524281464" width="395.52"><g><svg viewBox="0 0 395.52 237.54719524281464" height="237.54719524281464" width="395.52"><g id="textblocktransform"><svg viewBox="0 0 395.52 237.54719524281464" height="237.54719524281464" width="395.52" id="textblock"><g><svg viewBox="0 0 395.52 237.54719524281464" height="237.54719524281464" width="395.52"><g transform="matrix(1,0,0,1,0,0)"><svg width="395.52" viewBox="76.06999206542969 -36.500003814697266 151.3499755859375 87.90000915527344" height="237.54719524281464" data-palette-color="#000000"><svg></svg><svg></svg><g class="undefined-text-0" data-fill-palette-color="primary" id="text-0"><path xmlns="http://www.w3.org/2000/svg" d="M97.57 5.95h-19.2c-0.8 0-1.383-0.183-1.75-0.55-0.367-0.367-0.55-0.95-0.55-1.75v0-32.4c0-0.433 0.06-0.8 0.18-1.1 0.113-0.3 0.287-0.55 0.52-0.75v0l6.45-5.45c0.167-0.133 0.393-0.243 0.68-0.33 0.28-0.08 0.587-0.12 0.92-0.12v0h15.95c3.467 0 6.017 0.673 7.65 2.02 1.633 1.353 2.45 3.397 2.45 6.13v0 2.4c0 1.167-0.157 2.167-0.47 3-0.32 0.833-0.797 1.5-1.43 2v0l-0.15 0.1c1.8 0.4 3.15 1.257 4.05 2.57 0.9 1.32 1.35 3.147 1.35 5.48v0 4.6c0 1.5-0.217 2.79-0.65 3.87-0.433 1.087-1.083 1.997-1.95 2.73v0l-6.45 5.45c-0.833 0.7-1.883 1.227-3.15 1.58-1.267 0.347-2.75 0.52-4.45 0.52zM84.82 0h19.2c3.3 0 5.74-0.667 7.32-2 1.587-1.333 2.38-3.4 2.38-6.2v0-4.6c0-2.433-0.517-4.283-1.55-5.55-1.033-1.267-2.617-2-4.75-2.2v0c1-0.433 1.743-1.093 2.23-1.98 0.48-0.88 0.72-2.02 0.72-3.42v0-2.4c0-2.6-0.783-4.527-2.35-5.78-1.567-1.247-3.983-1.87-7.25-1.87v0h-15.95c-0.633 0-1.09 0.14-1.37 0.42-0.287 0.287-0.43 0.747-0.43 1.38v0 32.4c0 0.633 0.143 1.09 0.43 1.37 0.28 0.287 0.737 0.43 1.37 0.43zM102.02-4.5v0h-13.45v-27h10.15c1.367 0 2.483 0.14 3.35 0.42 0.867 0.287 1.533 0.67 2 1.15 0.467 0.487 0.783 1.047 0.95 1.68 0.167 0.633 0.25 1.317 0.25 2.05v0 3.2c0 1-0.173 1.917-0.52 2.75-0.353 0.833-1.247 1.433-2.68 1.8v0c1.367 0 2.483 0.14 3.35 0.42 0.867 0.287 1.533 0.69 2 1.21 0.467 0.513 0.773 1.12 0.92 1.82 0.153 0.7 0.23 1.467 0.23 2.3v0 3.2c0 0.733-0.083 1.407-0.25 2.02-0.167 0.62-0.473 1.147-0.92 1.58-0.453 0.433-1.113 0.773-1.98 1.02-0.867 0.253-2 0.38-3.4 0.38zM98.72-31v0h-9.65v12.55h9.65c1.367 0 2.45-0.123 3.25-0.37 0.8-0.253 1.41-0.59 1.83-1.01 0.413-0.413 0.68-0.897 0.8-1.45 0.113-0.547 0.17-1.12 0.17-1.72v0-3.2c0-1.333-0.383-2.467-1.15-3.4-0.767-0.933-2.4-1.4-4.9-1.4zM94.27-22.1v-5.4h4.25c0.633 0 1.11 0.167 1.43 0.5 0.313 0.333 0.47 0.833 0.47 1.5v0 1.4c0 0.667-0.157 1.167-0.47 1.5-0.32 0.333-0.797 0.5-1.43 0.5v0zM102.07-17.95v0h-13v12.95h12.95c2.5 0 4.133-0.41 4.9-1.23 0.767-0.813 1.15-1.903 1.15-3.27v0-3.2c0-1.5-0.373-2.75-1.12-3.75-0.753-1-2.38-1.5-4.88-1.5zM94.27-8.5v-5.9h6.5c0.633 0 1.11 0.157 1.43 0.47 0.313 0.32 0.47 0.813 0.47 1.48v0 1.95c0 0.667-0.157 1.167-0.47 1.5-0.32 0.333-0.797 0.5-1.43 0.5v0zM142.82 5.95v0h-23.2c-0.8 0-1.383-0.183-1.75-0.55-0.367-0.367-0.55-0.95-0.55-1.75v0-32.4c0-0.433 0.057-0.8 0.17-1.1 0.12-0.3 0.297-0.55 0.53-0.75v0l6.45-5.45c0.167-0.133 0.393-0.243 0.68-0.33 0.28-0.08 0.587-0.12 0.92-0.12v0h23.2c0.8 0 1.383 0.183 1.75 0.55 0.367 0.367 0.55 0.95 0.55 1.75v0 5.85c0 0.433-0.057 0.8-0.17 1.1-0.12 0.3-0.297 0.55-0.53 0.75v0l-4.3 3.55c0.333 0.167 0.573 0.417 0.72 0.75 0.153 0.333 0.23 0.767 0.23 1.3v0 5.35c0 0.433-0.057 0.8-0.17 1.1-0.12 0.3-0.297 0.55-0.53 0.75v0l-4.45 3.75h6.9c0.8 0 1.383 0.183 1.75 0.55 0.367 0.367 0.55 0.95 0.55 1.75v0 5.85c0 0.433-0.057 0.8-0.17 1.1-0.12 0.3-0.297 0.55-0.53 0.75v0l-6.5 5.4c-0.133 0.133-0.343 0.25-0.63 0.35-0.28 0.1-0.587 0.15-0.92 0.15zM126.07 0h23.2c0.633 0 1.093-0.143 1.38-0.43 0.28-0.28 0.42-0.737 0.42-1.37v0-5.85c0-0.633-0.14-1.093-0.42-1.38-0.287-0.28-0.747-0.42-1.38-0.42v0h-13.8v-4.3h9.75c0.633 0 1.093-0.143 1.38-0.43 0.28-0.28 0.42-0.737 0.42-1.37v0-5.35c0-0.633-0.14-1.093-0.42-1.38-0.287-0.28-0.747-0.42-1.38-0.42v0h-9.75v-3.85h13.8c0.633 0 1.093-0.143 1.38-0.43 0.28-0.28 0.42-0.737 0.42-1.37v0-5.85c0-0.633-0.14-1.093-0.42-1.38-0.287-0.28-0.747-0.42-1.38-0.42v0h-23.2c-0.633 0-1.09 0.14-1.37 0.42-0.287 0.287-0.43 0.747-0.43 1.38v0 32.4c0 0.633 0.143 1.09 0.43 1.37 0.28 0.287 0.737 0.43 1.37 0.43zM130.22-5h16.35v0.5h-16.85v-27h16.85v0.5h-16.35v12.55h12.3v0.5h-12.3zM172.22 5.95h-15.8c-0.8 0-1.383-0.183-1.75-0.55-0.367-0.367-0.55-0.95-0.55-1.75v0-5.85c0-0.433 0.06-0.8 0.18-1.1 0.113-0.3 0.287-0.55 0.52-0.75v0l5-4.2c-1.767-0.533-3.157-1.443-4.17-2.73-1.02-1.28-1.53-3.12-1.53-5.52v0-5.25c0-1.5 0.25-2.833 0.75-4 0.5-1.167 1.217-2.15 2.15-2.95v0l6.5-5.45c0.9-0.733 2.017-1.31 3.35-1.73 1.333-0.413 2.85-0.62 4.55-0.62v0h14c0.8 0 1.383 0.183 1.75 0.55 0.367 0.367 0.55 0.95 0.55 1.75v0 5.95c0 0.433-0.06 0.8-0.18 1.1-0.113 0.3-0.287 0.55-0.52 0.75v0l-4.5 3.75c2.1 0.467 3.793 1.34 5.08 2.62 1.28 1.287 1.92 3.28 1.92 5.98v0 5.25c0 1.5-0.25 2.833-0.75 4-0.5 1.167-1.233 2.15-2.2 2.95v0l-6.45 5.4c-0.933 0.767-2.067 1.36-3.4 1.78-1.333 0.413-2.833 0.62-4.5 0.62zM162.87 0h15.8c3.2 0 5.727-0.757 7.58-2.27 1.847-1.52 2.77-3.697 2.77-6.53v0-5.25c0-2.8-0.717-4.8-2.15-6-1.433-1.2-3.317-1.967-5.65-2.3v0l-7.45-1c-0.433-0.033-0.767-0.2-1-0.5-0.233-0.3-0.35-0.667-0.35-1.1v0c0-0.433 0.117-0.793 0.35-1.08 0.233-0.28 0.567-0.42 1-0.42v0h11.65c0.633 0 1.09-0.143 1.37-0.43 0.287-0.28 0.43-0.737 0.43-1.37v0-5.95c0-0.633-0.143-1.093-0.43-1.38-0.28-0.28-0.737-0.42-1.37-0.42v0h-14c-3.233 0-5.767 0.757-7.6 2.27-1.833 1.52-2.75 3.697-2.75 6.53v0 5.25c0 2.8 0.71 4.8 2.13 6 1.413 1.2 3.287 1.967 5.62 2.3v0l7.5 1.05c0.433 0.033 0.76 0.183 0.98 0.45 0.213 0.267 0.32 0.683 0.32 1.25v0c0 0.4-0.107 0.74-0.32 1.02-0.22 0.287-0.547 0.43-0.98 0.43v0h-13.45c-0.633 0-1.093 0.14-1.38 0.42-0.28 0.287-0.42 0.747-0.42 1.38v0 5.85c0 0.633 0.14 1.09 0.42 1.37 0.287 0.287 0.747 0.43 1.38 0.43zM171.62-31.5h11.1v0.5h-11.1c-1.4 0-2.517 0.383-3.35 1.15-0.833 0.767-1.25 1.733-1.25 2.9v0 4.1c0 1.167 0.233 1.983 0.7 2.45 0.467 0.467 1.083 0.767 1.85 0.9v0l10.55 2.15c1 0.2 1.827 0.633 2.48 1.3 0.647 0.667 0.97 1.867 0.97 3.6v0 2.9c0 1.467-0.5 2.673-1.5 3.62-1 0.953-2.35 1.43-4.05 1.43v0h-12.45v-0.5h12.45c1.533 0 2.76-0.427 3.68-1.28 0.913-0.847 1.37-1.937 1.37-3.27v0-2.9c0-1.567-0.273-2.643-0.82-3.23-0.553-0.58-1.297-0.97-2.23-1.17v0l-10.55-2.15c-0.867-0.167-1.573-0.51-2.12-1.03-0.553-0.513-0.83-1.453-0.83-2.82v0-4.1c0-1.333 0.467-2.427 1.4-3.28 0.933-0.847 2.167-1.27 3.7-1.27zM209.52 5.95v0h-8.1c-0.8 0-1.383-0.183-1.75-0.55-0.367-0.367-0.55-0.95-0.55-1.75v0-24.05h-6.85c-0.8 0-1.383-0.183-1.75-0.55-0.367-0.367-0.55-0.95-0.55-1.75v0-6.05c0-0.433 0.06-0.8 0.18-1.1 0.113-0.3 0.287-0.55 0.52-0.75v0l6.45-5.45c0.167-0.133 0.393-0.243 0.68-0.33 0.28-0.08 0.587-0.12 0.92-0.12v0h26.4c0.8 0 1.383 0.183 1.75 0.55 0.367 0.367 0.55 0.95 0.55 1.75v0 6.05c0 0.433-0.057 0.8-0.17 1.1-0.12 0.3-0.297 0.55-0.53 0.75v0l-6.5 5.4c-0.133 0.133-0.34 0.25-0.62 0.35-0.287 0.1-0.597 0.15-0.93 0.15v0h-0.4v18.6c0 0.433-0.057 0.8-0.17 1.1-0.12 0.3-0.297 0.55-0.53 0.75v0l-6.5 5.4c-0.133 0.133-0.34 0.25-0.62 0.35-0.287 0.1-0.597 0.15-0.93 0.15zM207.87 0h8.1c0.633 0 1.093-0.143 1.38-0.43 0.28-0.28 0.42-0.737 0.42-1.37v0-24.55h7.35c0.633 0 1.093-0.143 1.38-0.43 0.28-0.28 0.42-0.737 0.42-1.37v0-6.05c0-0.633-0.14-1.093-0.42-1.38-0.287-0.28-0.747-0.42-1.38-0.42v0h-26.4c-0.633 0-1.09 0.14-1.37 0.42-0.287 0.287-0.43 0.747-0.43 1.38v0 6.05c0 0.633 0.143 1.09 0.43 1.37 0.28 0.287 0.737 0.43 1.37 0.43v0h7.35v24.55c0 0.633 0.143 1.09 0.43 1.37 0.28 0.287 0.737 0.43 1.37 0.43zM212.17-4.5h-0.5v-26.5h-10.25v-0.5h21v0.5h-10.25z" fill="#000000" fill-rule="nonzero" stroke="none" stroke-width="1" stroke-linecap="butt" stroke-linejoin="miter" stroke-miterlimit="10" stroke-dasharray="" stroke-dashoffset="0" font-family="none" font-weight="none" font-size="none" text-anchor="none" style="mix-blend-mode: normal" data-fill-palette-color="primary" opacity="1"></path><path xmlns="http://www.w3.org/2000/svg" d="M102.5 51.4v0h-23.2c-0.8 0-1.383-0.183-1.75-0.55-0.367-0.367-0.55-0.95-0.55-1.75v0-32.4c0-0.433 0.06-0.8 0.18-1.1 0.113-0.3 0.287-0.55 0.52-0.75v0l6.45-5.45c0.167-0.133 0.393-0.243 0.68-0.33 0.28-0.08 0.587-0.12 0.92-0.12v0h23.2c0.8 0 1.383 0.183 1.75 0.55 0.367 0.367 0.55 0.95 0.55 1.75v0 5.85c0 0.433-0.057 0.8-0.17 1.1-0.12 0.3-0.297 0.55-0.53 0.75v0l-4.3 3.55c0.333 0.167 0.577 0.417 0.73 0.75 0.147 0.333 0.22 0.767 0.22 1.3v0 5.35c0 0.433-0.06 0.8-0.18 1.1-0.113 0.3-0.287 0.55-0.52 0.75v0l-4.45 3.75h6.9c0.8 0 1.383 0.183 1.75 0.55 0.367 0.367 0.55 0.95 0.55 1.75v0 5.85c0 0.433-0.057 0.8-0.17 1.1-0.12 0.3-0.297 0.55-0.53 0.75v0l-6.5 5.4c-0.133 0.133-0.34 0.25-0.62 0.35-0.287 0.1-0.597 0.15-0.93 0.15zM85.75 45.45h23.2c0.633 0 1.093-0.143 1.38-0.43 0.28-0.28 0.42-0.737 0.42-1.37v0-5.85c0-0.633-0.14-1.093-0.42-1.38-0.287-0.28-0.747-0.42-1.38-0.42v0h-13.8v-4.3h9.75c0.633 0 1.093-0.143 1.38-0.43 0.28-0.28 0.42-0.737 0.42-1.37v0-5.35c0-0.633-0.14-1.093-0.42-1.38-0.287-0.28-0.747-0.42-1.38-0.42v0h-9.75v-3.85h13.8c0.633 0 1.093-0.143 1.38-0.43 0.28-0.28 0.42-0.737 0.42-1.37v0-5.85c0-0.633-0.14-1.093-0.42-1.38-0.287-0.28-0.747-0.42-1.38-0.42v0h-23.2c-0.633 0-1.09 0.14-1.37 0.42-0.287 0.287-0.43 0.747-0.43 1.38v0 32.4c0 0.633 0.143 1.09 0.43 1.37 0.28 0.287 0.737 0.43 1.37 0.43zM89.9 40.45h16.35v0.5h-16.85v-27h16.85v0.5h-16.35v12.55h12.3v0.5h-12.3zM126.7 30.3v0 1.55h19.5v-1.55c0-0.9-0.077-1.733-0.23-2.5-0.147-0.767-0.337-1.483-0.57-2.15v0l-3.45-8.15c-0.367-0.867-0.75-1.593-1.15-2.18-0.4-0.58-1.067-0.87-2-0.87v0h-4.9c-1 0-1.7 0.29-2.1 0.87-0.4 0.587-0.767 1.297-1.1 2.13v0l-3.2 8.2c-0.233 0.667-0.423 1.383-0.57 2.15-0.153 0.767-0.23 1.6-0.23 2.5zM132.35 27.55l2.35-7.6c0.133-0.3 0.277-0.517 0.43-0.65 0.147-0.133 0.32-0.2 0.52-0.2v0h1.25c0.2 0 0.377 0.067 0.53 0.2 0.147 0.133 0.287 0.35 0.42 0.65v0l2.35 7.6zM146.7 40.95h-0.5v-8.6h-19.5v8.6h-0.5v-10.65c0-0.933 0.077-1.793 0.23-2.58 0.147-0.78 0.353-1.537 0.62-2.27v0l3.2-8.2c0.367-0.933 0.783-1.717 1.25-2.35 0.467-0.633 1.267-0.95 2.4-0.95v0h4.9c1.1 0 1.877 0.317 2.33 0.95 0.447 0.633 0.87 1.433 1.27 2.4v0l3.45 8.15c0.267 0.733 0.473 1.49 0.62 2.27 0.153 0.787 0.23 1.647 0.23 2.58v0zM131.85 43.65v0-7h8.85v7c0 0.633 0.16 1.09 0.48 1.37 0.313 0.287 0.803 0.43 1.47 0.43v0h7.55c0.633 0 1.093-0.143 1.38-0.43 0.28-0.28 0.42-0.737 0.42-1.37v0-13.2c0-1-0.157-2.15-0.47-3.45-0.32-1.3-0.813-2.817-1.48-4.55v0l-4.35-11.35c-0.2-0.567-0.507-0.983-0.92-1.25-0.42-0.267-0.947-0.4-1.58-0.4v0h-13.45c-0.667 0-1.207 0.133-1.62 0.4-0.42 0.267-0.73 0.683-0.93 1.25v0l-4.35 11.35c-0.667 1.733-1.157 3.25-1.47 4.55-0.32 1.3-0.48 2.45-0.48 3.45v0 13.2c0 0.633 0.143 1.09 0.43 1.37 0.28 0.287 0.737 0.43 1.37 0.43v0h7.35c0.633 0 1.093-0.143 1.38-0.43 0.28-0.28 0.42-0.737 0.42-1.37zM131.65 45.5l-6.5 5.4c-0.133 0.133-0.34 0.25-0.62 0.35-0.287 0.1-0.597 0.15-0.93 0.15v0h-7.35c-0.8 0-1.383-0.183-1.75-0.55-0.367-0.367-0.55-0.95-0.55-1.75v0-13.2c0-1.033 0.16-2.21 0.48-3.53 0.313-1.313 0.82-2.87 1.52-4.67v0l4.3-11.3c0.1-0.3 0.227-0.56 0.38-0.78 0.147-0.213 0.303-0.403 0.47-0.57v0l0.05-0.05 6.4-5.35c0.267-0.233 0.583-0.41 0.95-0.53 0.367-0.113 0.783-0.17 1.25-0.17v0h13.45c0.767 0 1.393 0.16 1.88 0.48 0.48 0.313 0.837 0.803 1.07 1.47v0l4.35 11.35c0.7 1.8 1.21 3.357 1.53 4.67 0.313 1.32 0.47 2.497 0.47 3.53v0 13.2c0 0.433-0.057 0.8-0.17 1.1-0.12 0.3-0.297 0.55-0.53 0.75v0l-6.5 5.4c-0.133 0.133-0.34 0.25-0.62 0.35-0.287 0.1-0.597 0.15-0.93 0.15v0h-7.55c-0.833 0-1.45-0.19-1.85-0.57-0.4-0.387-0.6-0.963-0.6-1.73v0-6.5h-1.4v1.05c0 0.433-0.057 0.8-0.17 1.1-0.12 0.3-0.297 0.55-0.53 0.75zM171.7 51.4v0h-8.1c-0.8 0-1.383-0.183-1.75-0.55-0.367-0.367-0.55-0.95-0.55-1.75v0-24.05h-6.85c-0.8 0-1.383-0.183-1.75-0.55-0.367-0.367-0.55-0.95-0.55-1.75v0-6.05c0-0.433 0.06-0.8 0.18-1.1 0.113-0.3 0.287-0.55 0.52-0.75v0l6.45-5.45c0.167-0.133 0.393-0.243 0.68-0.33 0.28-0.08 0.587-0.12 0.92-0.12v0h26.4c0.8 0 1.383 0.183 1.75 0.55 0.367 0.367 0.55 0.95 0.55 1.75v0 6.05c0 0.433-0.057 0.8-0.17 1.1-0.12 0.3-0.297 0.55-0.53 0.75v0l-6.5 5.4c-0.133 0.133-0.34 0.25-0.62 0.35-0.287 0.1-0.597 0.15-0.93 0.15v0h-0.4v18.6c0 0.433-0.057 0.8-0.17 1.1-0.12 0.3-0.297 0.55-0.53 0.75v0l-6.5 5.4c-0.133 0.133-0.34 0.25-0.62 0.35-0.287 0.1-0.597 0.15-0.93 0.15zM170.05 45.45h8.1c0.633 0 1.093-0.143 1.38-0.43 0.28-0.28 0.42-0.737 0.42-1.37v0-24.55h7.35c0.633 0 1.093-0.143 1.38-0.43 0.28-0.28 0.42-0.737 0.42-1.37v0-6.05c0-0.633-0.14-1.093-0.42-1.38-0.287-0.28-0.747-0.42-1.38-0.42v0h-26.4c-0.633 0-1.09 0.14-1.37 0.42-0.287 0.287-0.43 0.747-0.43 1.38v0 6.05c0 0.633 0.143 1.09 0.43 1.37 0.28 0.287 0.737 0.43 1.37 0.43v0h7.35v24.55c0 0.633 0.143 1.09 0.43 1.37 0.28 0.287 0.737 0.43 1.37 0.43zM174.35 40.95h-0.5v-26.5h-10.25v-0.5h21v0.5h-10.25zM209.2 51.4h-15.8c-0.8 0-1.383-0.183-1.75-0.55-0.367-0.367-0.55-0.95-0.55-1.75v0-5.85c0-0.433 0.06-0.8 0.18-1.1 0.113-0.3 0.287-0.55 0.52-0.75v0l5-4.2c-1.767-0.533-3.157-1.443-4.17-2.73-1.02-1.28-1.53-3.12-1.53-5.52v0-5.25c0-1.5 0.25-2.833 0.75-4 0.5-1.167 1.217-2.15 2.15-2.95v0l6.5-5.45c0.9-0.733 2.017-1.31 3.35-1.73 1.333-0.413 2.85-0.62 4.55-0.62v0h14c0.8 0 1.383 0.183 1.75 0.55 0.367 0.367 0.55 0.95 0.55 1.75v0 5.95c0 0.433-0.057 0.8-0.17 1.1-0.12 0.3-0.297 0.55-0.53 0.75v0l-4.5 3.75c2.1 0.467 3.79 1.34 5.07 2.62 1.287 1.287 1.93 3.28 1.93 5.98v0 5.25c0 1.5-0.25 2.833-0.75 4-0.5 1.167-1.233 2.15-2.2 2.95v0l-6.45 5.4c-0.933 0.767-2.067 1.36-3.4 1.78-1.333 0.413-2.833 0.62-4.5 0.62zM199.85 45.45h15.8c3.2 0 5.723-0.757 7.57-2.27 1.853-1.52 2.78-3.697 2.78-6.53v0-5.25c0-2.8-0.717-4.8-2.15-6-1.433-1.2-3.317-1.967-5.65-2.3v0l-7.45-1c-0.433-0.033-0.767-0.2-1-0.5-0.233-0.3-0.35-0.667-0.35-1.1v0c0-0.433 0.117-0.793 0.35-1.08 0.233-0.28 0.567-0.42 1-0.42v0h11.65c0.633 0 1.093-0.143 1.38-0.43 0.28-0.28 0.42-0.737 0.42-1.37v0-5.95c0-0.633-0.14-1.093-0.42-1.38-0.287-0.28-0.747-0.42-1.38-0.42v0h-14c-3.233 0-5.767 0.757-7.6 2.27-1.833 1.52-2.75 3.697-2.75 6.53v0 5.25c0 2.8 0.707 4.8 2.12 6 1.42 1.2 3.297 1.967 5.63 2.3v0l7.5 1.05c0.433 0.033 0.76 0.183 0.98 0.45 0.213 0.267 0.32 0.683 0.32 1.25v0c0 0.4-0.107 0.74-0.32 1.02-0.22 0.287-0.547 0.43-0.98 0.43v0h-13.45c-0.633 0-1.093 0.14-1.38 0.42-0.28 0.287-0.42 0.747-0.42 1.38v0 5.85c0 0.633 0.14 1.09 0.42 1.37 0.287 0.287 0.747 0.43 1.38 0.43zM208.6 13.95h11.1v0.5h-11.1c-1.4 0-2.517 0.383-3.35 1.15-0.833 0.767-1.25 1.733-1.25 2.9v0 4.1c0 1.167 0.233 1.983 0.7 2.45 0.467 0.467 1.083 0.767 1.85 0.9v0l10.55 2.15c1 0.2 1.823 0.633 2.47 1.3 0.653 0.667 0.98 1.867 0.98 3.6v0 2.9c0 1.467-0.5 2.673-1.5 3.62-1 0.953-2.35 1.43-4.05 1.43v0h-12.45v-0.5h12.45c1.533 0 2.76-0.427 3.68-1.28 0.913-0.847 1.37-1.937 1.37-3.27v0-2.9c0-1.567-0.277-2.643-0.83-3.23-0.547-0.58-1.287-0.97-2.22-1.17v0l-10.55-2.15c-0.867-0.167-1.577-0.51-2.13-1.03-0.547-0.513-0.82-1.453-0.82-2.82v0-4.1c0-1.333 0.467-2.427 1.4-3.28 0.933-0.847 2.167-1.27 3.7-1.27z" fill="#e8772e" fill-rule="nonzero" stroke="none" stroke-width="1" stroke-linecap="butt" stroke-linejoin="miter" stroke-miterlimit="10" stroke-dasharray="" stroke-dashoffset="0" font-family="none" font-weight="none" font-size="none" text-anchor="none" style="mix-blend-mode: normal" data-fill-palette-color="secondary" opacity="1"></path></g></svg></g></svg></g></svg></g></svg></g></svg></g><defs></defs></svg><rect width="395.52" height="237.54719524281464" fill="none" stroke="none" visibility="hidden"></rect></g></svg></g></svg>